<svg viewBox="0 0 24 24" fill="none" xmlns="http://www.w3.org/2000/svg" role="img" class="sc-f8fa3795-4 ejVNCE">
  <path d="M2.80905 5.66275C3.03339 5.24475 3.35717 4.88836 3.75182 4.62507L10.375 0L3.58875 11.2218C3.58875 11.2218 2.99581 10.2197 2.76456 9.71265C2.47639 9.07515 2.33106 8.38235 2.33874 7.6828C2.34643 6.9832 2.50695 6.2938 2.80905 5.66275ZM0.0755828 13.4038C0.150363 14.4769 0.453553 15.5217 0.964848 16.4681C1.47615 17.4146 2.18375 18.2409 3.04028 18.8916L10.3661 24C10.3661 24 5.78263 17.3944 1.91666 10.8215C1.52527 10.127 1.26215 9.3678 1.13991 8.5801C1.08579 8.2234 1.08579 7.8606 1.13991 7.5039C1.03911 7.6907 0.843438 8.07315 0.843438 8.07315C0.451443 8.87265 0.184478 9.72755 0.0518628 10.6081C-0.0244662 11.5388 -0.0165282 12.4745 0.0755828 13.4038ZM18.7532 14.2933C18.516 13.7863 17.929 12.7842 17.929 12.7842L11.1547 24L17.7778 19.3779C18.1725 19.1146 18.4962 18.7583 18.7206 18.3402C19.0227 17.7092 19.1832 17.0197 19.1909 16.3202C19.1986 15.6206 19.0532 14.9278 18.7651 14.2903L18.7532 14.2933ZM21.4422 10.5991C21.3674 9.526 21.0642 8.48125 20.5529 7.5348C20.0416 6.58835 19.334 5.7621 18.4775 5.1113L11.1636 0C11.1636 0 15.744 6.60555 19.613 13.1785C20.0033 13.8732 20.2654 14.6323 20.3867 15.4199C20.4409 15.7766 20.4409 16.1394 20.3867 16.4961C20.4875 16.3093 20.6832 15.9269 20.6832 15.9269C21.0752 15.1274 21.3422 14.2724 21.4748 13.3919C21.5521 12.4613 21.5452 11.5256 21.454 10.5962L21.4422 10.5991Z" fill="url(#paint3_linear_2281_2524)">
  </path>
  <defs>
    <!-- <linearGradient id="paint0_linear_2281_2524" x1="35.3114" y1="26.8444" x2="22.209" y2="-24.0969" gradientUnits="userSpaceOnUse">
      <stop stop-color="#44BCF0">
      </stop>
      <stop offset="0.378795" stop-color="#7298F8">
      </stop>
      <stop offset="1" stop-color="#A099FF">
      </stop>
    </linearGradient>
    <linearGradient id="paint1_linear_2281_2524" x1="35.3114" y1="26.8444" x2="22.209" y2="-24.0969" gradientUnits="userSpaceOnUse">
      <stop stop-color="#44BCF0">
      </stop>
      <stop offset="0.378795" stop-color="#7298F8">
      </stop>
      <stop offset="1" stop-color="#A099FF">
      </stop>
    </linearGradient>
    <linearGradient id="paint2_linear_2281_2524" x1="35.3114" y1="26.8444" x2="22.209" y2="-24.0969" gradientUnits="userSpaceOnUse">
      <stop stop-color="#44BCF0">
      </stop>
      <stop offset="0.378795" stop-color="#7298F8">
      </stop>
      <stop offset="1" stop-color="#A099FF">
      </stop>
    </linearGradient> -->
    <linearGradient id="paint3_linear_2281_2524" x1="35.3114" y1="26.8444" x2="22.209" y2="-24.0969" gradientUnits="userSpaceOnUse">
      <stop stop-color="#44BCF0">
      </stop>
      <stop offset="0.378795" stop-color="#7298F8">
      </stop>
      <stop offset="1" stop-color="#A099FF">
      </stop>
    </linearGradient>
  </defs>
</svg>